<?xml version="1.0" encoding="UTF-8"?>
<!DOCTYPE svg PUBLIC "-//W3C//DTD SVG 1.1//EN" "http://www.w3.org/Graphics/SVG/1.1/DTD/svg11.dtd">
<svg xmlns="http://www.w3.org/2000/svg" version="1.1" width="51px" height="37px" style="shape-rendering:geometricPrecision; text-rendering:geometricPrecision; image-rendering:optimizeQuality; fill-rule:evenodd; clip-rule:evenodd" xmlns:xlink="http://www.w3.org/1999/xlink">
<g><path style="opacity:0.825" fill="#ebe5b8" d="M -0.5,-0.5 C 1.83333,-0.5 4.16667,-0.5 6.5,-0.5C 7.36268,1.42136 8.02935,3.42136 8.5,5.5C 5.22514,5.23851 2.22514,5.57184 -0.5,6.5C -0.5,4.16667 -0.5,1.83333 -0.5,-0.5 Z"/></g>
<g><path style="opacity:0.841" fill="#ebe4b9" d="M 17.5,-0.5 C 19.8333,-0.5 22.1667,-0.5 24.5,-0.5C 24.5,1.83333 24.5,4.16667 24.5,6.5C 22.2272,5.30467 19.8939,5.30467 17.5,6.5C 16.2867,6.25284 15.62,5.58617 15.5,4.5C 15.8925,2.7162 16.5592,1.04953 17.5,-0.5 Z"/></g>
<g><path style="opacity:0.812" fill="#eae4b9" d="M 42.5,-0.5 C 45.1667,-0.5 47.8333,-0.5 50.5,-0.5C 50.5,1.5 50.5,3.5 50.5,5.5C 46.6331,5.24171 42.9664,5.90837 39.5,7.5C 39.2942,5.45079 38.4609,5.11746 37,6.5C 36.0053,5.93406 35.172,5.26739 34.5,4.5C 36.8633,2.3199 39.53,0.65323 42.5,-0.5 Z"/></g>
<g><path style="opacity:0.874" fill="#e5e2ba" d="M 8.5,5.5 C 9.67373,6.51369 10.3404,7.84702 10.5,9.5C 7.42983,9.70185 4.26316,9.70185 1,9.5C 0.517215,10.448 0.350549,11.448 0.5,12.5C 0.166667,12.5 -0.166667,12.5 -0.5,12.5C -0.5,10.5 -0.5,8.5 -0.5,6.5C 2.22514,5.57184 5.22514,5.23851 8.5,5.5 Z"/></g>
<g><path style="opacity:0.824" fill="#e5e1bb" d="M 15.5,4.5 C 15.62,5.58617 16.2867,6.25284 17.5,6.5C 19.8939,5.30467 22.2272,5.30467 24.5,6.5C 24.5,7.5 24.5,8.5 24.5,9.5C 20.9431,9.41341 17.6098,9.74674 14.5,10.5C 13.7025,10.0431 13.3691,9.37644 13.5,8.5C 13.6596,6.84702 14.3263,5.51369 15.5,4.5 Z"/></g>
<g><path style="opacity:0.828" fill="#e5e2bb" d="M 34.5,4.5 C 35.172,5.26739 36.0053,5.93406 37,6.5C 38.4609,5.11746 39.2942,5.45079 39.5,7.5C 38.8333,8.83333 37.8333,9.83333 36.5,10.5C 34.5,10.5 32.5,10.5 30.5,10.5C 31.3403,8.14746 32.6736,6.14746 34.5,4.5 Z"/></g>
<g><path style="opacity:0.844" fill="#e2dfbd" d="M 13.5,8.5 C 13.3691,9.37644 13.7025,10.0431 14.5,10.5C 17.6098,9.74674 20.9431,9.41341 24.5,9.5C 24.5,10.5 24.5,11.5 24.5,12.5C 22.5,12.8333 20.5,13.1667 18.5,13.5C 18.1667,12.1667 17.8333,12.1667 17.5,13.5C 13.9817,12.8951 10.315,12.8951 6.5,13.5C 5.83333,13.5 5.5,13.8333 5.5,14.5C 4.22086,13.032 2.5542,12.3653 0.5,12.5C 0.350549,11.448 0.517215,10.448 1,9.5C 4.26316,9.70185 7.42983,9.70185 10.5,9.5C 11.1174,9.61071 11.6174,9.94404 12,10.5C 12.2784,9.5842 12.7784,8.91753 13.5,8.5 Z"/></g>
<g><path style="opacity:0.893" fill="#e2dfbd" d="M 36.5,10.5 C 36.4431,11.609 36.1098,12.609 35.5,13.5C 33.38,13.0702 31.38,13.0702 29.5,13.5C 29.2627,12.209 29.596,11.209 30.5,10.5C 32.5,10.5 34.5,10.5 36.5,10.5 Z"/></g>
<g><path style="opacity:0.866" fill="#dedcbe" d="M -0.5,12.5 C -0.166667,12.5 0.166667,12.5 0.5,12.5C 2.5542,12.3653 4.22086,13.032 5.5,14.5C 5.5,16.1667 5.5,17.8333 5.5,19.5C 3.29659,20.073 1.29659,19.4063 -0.5,17.5C -0.5,15.8333 -0.5,14.1667 -0.5,12.5 Z"/></g>
<g><path style="opacity:0.83" fill="#dddcbe" d="M 17.5,13.5 C 16.7368,15.3684 15.7368,17.0351 14.5,18.5C 12.9582,19.3007 11.2915,19.634 9.5,19.5C 7.99249,17.8185 6.99249,15.8185 6.5,13.5C 10.315,12.8951 13.9817,12.8951 17.5,13.5 Z"/></g>
<g><path style="opacity:0.732" fill="#dddcbe" d="M 24.5,12.5 C 24.5,15.8333 24.5,19.1667 24.5,22.5C 23.7677,21.1917 22.9344,19.8584 22,18.5C 20.8552,18.6191 19.6885,18.9524 18.5,19.5C 18.5,17.5 18.5,15.5 18.5,13.5C 20.5,13.1667 22.5,12.8333 24.5,12.5 Z"/></g>
<g><path style="opacity:0.813" fill="#dddcbe" d="M 35.5,13.5 C 34.8505,15.4352 34.5172,17.4352 34.5,19.5C 32.6965,19.5759 30.6965,19.2425 28.5,18.5C 28.2155,16.5853 28.5489,14.9187 29.5,13.5C 31.38,13.0702 33.38,13.0702 35.5,13.5 Z"/></g>
<g><path style="opacity:0.759" fill="#d8d8c0" d="M -0.5,17.5 C 1.29659,19.4063 3.29659,20.073 5.5,19.5C 5.5,20.8333 5.5,22.1667 5.5,23.5C 3.43889,24.6817 1.93889,24.0151 1,21.5C 0.617425,22.056 0.117425,22.3893 -0.5,22.5C -0.5,20.8333 -0.5,19.1667 -0.5,17.5 Z"/></g>
<g><path style="opacity:0.777" fill="#d9d9bf" d="M 14.5,18.5 C 13.3589,25.7172 11.6923,26.0505 9.5,19.5C 11.2915,19.634 12.9582,19.3007 14.5,18.5 Z"/></g>
<g><path style="opacity:0.833" fill="#d7d8c0" d="M 24.5,22.5 C 24.5,23.8333 24.5,25.1667 24.5,26.5C 22.8311,24.3382 20.8311,24.0048 18.5,25.5C 18.5,23.5 18.5,21.5 18.5,19.5C 19.6885,18.9524 20.8552,18.6191 22,18.5C 22.9344,19.8584 23.7677,21.1917 24.5,22.5 Z"/></g>
<g><path style="opacity:0.863" fill="#d8d9c0" d="M 28.5,18.5 C 30.6965,19.2425 32.6965,19.5759 34.5,19.5C 35.1667,21.1667 35.8333,22.8333 36.5,24.5C 35.1751,25.9526 34.3418,25.6192 34,23.5C 32.184,24.7432 30.684,24.4099 29.5,22.5C 28.5655,21.4324 28.2322,20.099 28.5,18.5 Z"/></g>
<g><path style="opacity:0.71" fill="#d2d5c3" d="M 5.5,23.5 C 5.5,26.1667 5.5,28.8333 5.5,31.5C 4.31213,30.3157 3.14547,30.3157 2,31.5C 1.6582,29.3808 0.824868,29.0474 -0.5,30.5C -0.5,27.8333 -0.5,25.1667 -0.5,22.5C 0.117425,22.3893 0.617425,22.056 1,21.5C 1.93889,24.0151 3.43889,24.6817 5.5,23.5 Z"/></g>
<g><path style="opacity:0.847" fill="#d3d5c2" d="M 29.5,22.5 C 30.684,24.4099 32.184,24.7432 34,23.5C 34.3418,25.6192 35.1751,25.9526 36.5,24.5C 37.5,25.8333 38.5,27.1667 39.5,28.5C 37.1346,27.9916 34.8013,27.3249 32.5,26.5C 31.8933,26.6236 31.56,26.9569 31.5,27.5C 30.0687,26.2196 29.4021,24.5529 29.5,22.5 Z"/></g>
<g><path style="opacity:0.828" fill="#d1d4c3" d="M 24.5,26.5 C 24.5,27.8333 24.5,29.1667 24.5,30.5C 22.5,30.8333 20.5,31.1667 18.5,31.5C 18.5,29.5 18.5,27.5 18.5,25.5C 20.8311,24.0048 22.8311,24.3382 24.5,26.5 Z"/></g>
<g><path style="opacity:0.824" fill="#d0d3c3" d="M 39.5,28.5 C 40.1667,28.8333 40.8333,29.1667 41.5,29.5C 41.0328,32.8258 39.8661,33.1591 38,30.5C 37.0053,31.0659 36.172,31.7326 35.5,32.5C 33.4131,31.4154 32.0798,29.7488 31.5,27.5C 31.56,26.9569 31.8933,26.6236 32.5,26.5C 34.8013,27.3249 37.1346,27.9916 39.5,28.5 Z"/></g>
<g><path style="opacity:0.756" fill="#cbd0c5" d="M 5.5,31.5 C 5.5,33.1667 5.5,34.8333 5.5,36.5C 3.5,36.5 1.5,36.5 -0.5,36.5C -0.5,34.5 -0.5,32.5 -0.5,30.5C 0.824868,29.0474 1.6582,29.3808 2,31.5C 3.14547,30.3157 4.31213,30.3157 5.5,31.5 Z"/></g>
<g><path style="opacity:0.733" fill="#cbd0c4" d="M 41.5,29.5 C 44.3915,30.4025 47.3915,30.7359 50.5,30.5C 50.5,32.5 50.5,34.5 50.5,36.5C 47.5,36.5 44.5,36.5 41.5,36.5C 39.249,35.5894 37.249,34.256 35.5,32.5C 36.172,31.7326 37.0053,31.0659 38,30.5C 39.8661,33.1591 41.0328,32.8258 41.5,29.5 Z"/></g>
<g><path style="opacity:0.746" fill="#cbd0c5" d="M 24.5,30.5 C 24.5,32.5 24.5,34.5 24.5,36.5C 22.5,36.5 20.5,36.5 18.5,36.5C 18.5,34.8333 18.5,33.1667 18.5,31.5C 20.5,31.1667 22.5,30.8333 24.5,30.5 Z"/></g>
</svg>
